/* XPM */
static char *_9fcfe4d509e4c9ec3f524b955137b4f[] = {
/* columns rows colors chars-per-pixel */
"64 64 121 2 ",
"   c black",
".  c #010101",
"X  c #020202",
"o  c gray1",
"O  c #040404",
"+  c gray2",
"@  c #060606",
"#  c #070707",
"$  c gray3",
"%  c #090909",
"&  c gray4",
"*  c #0B0B0B",
"=  c #0C0C0C",
"-  c gray5",
";  c gray6",
":  c #101010",
">  c #111111",
",  c gray7",
"<  c gray8",
"1  c #151515",
"2  c #161616",
"3  c gray9",
"4  c #191919",
"5  c gray10",
"6  c #1B1B1B",
"7  c #222222",
"8  c #252525",
"9  c gray15",
"0  c #272727",
"q  c #2A2A2A",
"w  c gray17",
"e  c #2F2F2F",
"r  c gray22",
"t  c #393939",
"y  c #3A3A3A",
"u  c gray23",
"i  c #3C3C3C",
"p  c gray24",
"a  c #3E3E3E",
"s  c #3F3F3F",
"d  c gray25",
"f  c #434343",
"g  c gray28",
"h  c #494949",
"j  c #4B4B4B",
"k  c #505050",
"l  c #515151",
"z  c gray32",
"x  c #535353",
"c  c gray33",
"v  c #555555",
"b  c #565656",
"n  c gray34",
"m  c #585858",
"M  c #7C7C7C",
"N  c gray51",
"B  c #898989",
"V  c gray54",
"C  c #8B8B8B",
"Z  c gray55",
"A  c #8D8D8D",
"S  c #8E8E8E",
"D  c gray56",
"F  c #909090",
"G  c gray57",
"H  c #929292",
"J  c #939393",
"K  c gray58",
"L  c gray59",
"P  c #A2A2A2",
"I  c gray64",
"U  c #A4A4A4",
"Y  c #A5A5A5",
"T  c gray65",
"R  c #A7A7A7",
"E  c gray66",
"W  c #A9A9A9",
"Q  c #AAAAAA",
"!  c gray67",
"~  c #ACACAC",
"^  c gray68",
"/  c #AEAEAE",
"(  c gray70",
")  c #B7B7B7",
"_  c #B9B9B9",
"`  c gray73",
"'  c #C5C5C5",
"]  c gray79",
"[  c #CBCBCB",
"{  c #CDCDCD",
"}  c gray82",
"|  c #D2D2D2",
" . c LightGray",
".. c gray83",
"X. c #D7D7D7",
"o. c #D8D8D8",
"O. c gray85",
"+. c #DADADA",
"@. c gray86",
"#. c gainsboro",
"$. c #DDDDDD",
"%. c gray87",
"&. c gray88",
"*. c #E1E1E1",
"=. c gray89",
"-. c gray90",
";. c #E6E6E6",
":. c #E7E7E7",
">. c gray91",
",. c #E9E9E9",
"<. c #EAEAEA",
"1. c gray94",
"2. c #F3F3F3",
"3. c #F4F4F4",
"4. c #F9F9F9",
"5. c gray98",
"6. c #FBFBFB",
"7. c gray99",
"8. c #FDFDFD",
"9. c gray100",
"0. c None",
/* pixels */
"0.0.0.0.0.0.0.0.0.0.0.0.0.0.0.0.0.0.0.0.0.0.0.0.0.0.0.0.0.0.0.0.0.0.0.0.0.0.0.0.0.0.0.0.0.0.0.0.0.0.0.0.0.0.0.0.0.0.0.0.0.0.0.0.",
"0.0.0.0.                                                                                                                0.0.0.0.",
"0.0.0.                                                                                                                    0.0.0.",
"0.0.                                                                                                                        0.0.",
"0.                                                                                                                            0.",
"0.                                                                                                                            0.",
"0.                                                                                                                            0.",
"0.                                                                                                                            0.",
"0.                                                                                                                            0.",
"0.                                                                                                                            0.",
"0.                                                                                                                            0.",
"0.                                                                                                                            0.",
"0.                                                                  p 4                                                       0.",
"0.                                                                m >.Q 3                                                     0.",
"0.                                                              m >.9.9.Q 3                                                   0.",
"0.                                                            c >.9.9.9.9.Q 3                                                 0.",
"0.                                                          c >.9.9.9.9.9.9.Q 3                                               0.",
"0.                                                        c >.9.9.9.9.9.9.9.9.U 3                                             0.",
"0.                                                      c ;.9.9.9.6.I X.9.9.9.9.U 3                                           0.",
"0.                                                    c >.9.9.9.6.C + u X.9.9.9.9.U 3                                         0.",
"0.                                                  c ;.9.9.9.6.B *     u X.9.9.9.9.U 3                                       0.",
"0.                                                z ;.9.9.9.6.C *         p O.9.9.9.9.U 3                                     0.",
"0.                                              z >.9.9.9.6.C *             u O.9.9.9.9.U <                                   0.",
"0.                                            z ;.9.9.9.6.C *                 p O.9.9.9.9.I 3                                 0.",
"0.                                          z ;.9.9.9.9.D *                     p O.9.9.9.9.I 3                               0.",
"0.                                        z ;.9.9.9.6.C *                         p O.9.9.9.9.K +                             0.",
"0.                                      z ;.9.9.9.6.D *                             p O.9.9.;.c                               0.",
"0.                                    z ;.9.9.9.9.D *                                 f #.>.c                                 0.",
"0.                                  k ;.9.9.9.6.D *                                     p k                                   0.",
"0.                                z ;.9.9.9.9.F *                                                                             0.",
"0.                              h ;.9.9.9.6.F *                                                                               0.",
"0.                              f &.9.9.9.D =                                                                                 0.",
"0.                                g &.9.F =       + 0 0 0 9 *     0 u r r r r r u e +                                         0.",
"0.                                  h N =         9 } >.>.} 9     I 3.1.1.1.1.1.1.' 3                                         0.",
"0.                                    +           9 ;.9.9.>.w   + Q 9.9.9.9.9.9.9.} 3                                         0.",
"0.                                                9 ;.9.9.>.w   + Q 9.9.9.9.9.9.9.{ <                                         0.",
"0.                                                9 ;.9.9.>.w     Q 9.9.9.9.9.9.9.} <                                         0.",
"0.                                                9 ;.9.9.>.w   + Q 9.9.9.9.9.9.9.} <                                         0.",
"0.                                                9 ;.9.9.>.w   + Q 9.9.9.9.9.9.9.} 3                                         0.",
"0.                                                9 ;.9.9.>.w     ~ 9.9.9.9.9.9.9.} <                                         0.",
"0.                                                9 ;.9.9.>.w   + F &.#.O.#.#.#.#.( <                                         0.",
"0.                                                9 ;.9.9.>.w     < 6 4 4 4 4 4 6 4                                           0.",
"0.                                                9 ;.9.9.>.w                                                                 0.",
"0.                                                9 &.9.9.>.w     = = < < = < < < =                                           0.",
"0.                                                9 ;.9.9.>.w     C { ] ] ] ] ] ] U <                                         0.",
"0.                                                9 ;.9.9.>.w   + ~ 9.9.9.9.9.9.9.X.3                                         0.",
"0.                                                9 ;.9.9.>.w     Q 9.9.9.9.9.9.9.} 3                                         0.",
"0.                                                9 ;.9.9.>.w   + ~ 9.9.9.9.9.9.9.} <                                         0.",
"0.                                                9 ;.9.9.>.w     ~ 9.9.9.9.9.9.9.} 3                                         0.",
"0.                                                9 ;.9.9.>.w   + Q 9.9.9.9.9.9.9.{ <                                         0.",
"0.                                                9 ;.9.9.>.w   + Q 9.9.9.9.9.9.9.} <                                         0.",
"0.                                                9 ;.9.9.>.w   + ~ 9.9.9.9.9.9.9.X.3                                         0.",
"0.                                                9 &.6.6.&.0     M _ _ _ ) ) _ ) K <                                         0.",
"0.                                                * p g g f =     + * + + + + + + +                                           0.",
"0.                                                                                                                            0.",
"0.                                                                                                                            0.",
"0.                                                                                                                            0.",
"0.                                                                                                                            0.",
"0.                                                                                                                            0.",
"0.                                                                                                                            0.",
"0.0.                                                                                                                        0.0.",
"0.0.0.                                                                                                                    0.0.0.",
"0.0.0.0.                                                                                                                0.0.0.0.",
"0.0.0.0.0.0.                                                                                                        0.0.0.0.0.0."
};
