/* XPM */
static char *c3e4064e419843a9aaa189a926b17b1e[] = {
/* columns rows colors chars-per-pixel */
"16 16 55 1 ",
"  c black",
". c #010101",
"X c #020202",
"o c #060606",
"O c #070707",
"+ c gray3",
"@ c #111111",
"# c gray7",
"$ c #131313",
"% c gray9",
"& c #181818",
"* c gray11",
"= c #1D1D1D",
"- c #272727",
"; c #2D2D2D",
": c gray18",
"> c #2F2F2F",
", c #353535",
"< c #3A3A3A",
"1 c #3C3C3C",
"2 c gray24",
"3 c #3F3F3F",
"4 c #5A5A5A",
"5 c #5F5F5F",
"6 c #646464",
"7 c #656565",
"8 c #676767",
"9 c #6F6F6F",
"0 c #727272",
"q c #767676",
"w c gray47",
"e c #797979",
"r c #848484",
"t c #868686",
"y c gray53",
"u c #888888",
"i c #898989",
"p c gray54",
"a c #8B8B8B",
"s c #979797",
"d c gray62",
"f c #9F9F9F",
"g c #A0A0A0",
"h c gray63",
"j c #ACACAC",
"k c gray68",
"l c #AEAEAE",
"z c #C3C3C3",
"x c #C8C8C8",
"c c #CACACA",
"v c #D2D2D2",
"b c gray87",
"n c #FEFEFE",
"m c gray100",
"M c None",
/* pixels */
"M              M",
"                ",
"                ",
"       #p<      ",
"      #fvc<     ",
"     #fj*9c2    ",
"    #gl*  0sO   ",
"    pl* O++#    ",
"    ,%67ez4     ",
"      ragme     ",
"      rp27>     ",
"      rppb7     ",
"      rrfmq     ",
"      >>-3*     ",
"                ",
"M              M"
};
