/* XPM */
static char *f316ec031f82425fbda29db60ace38e7[] = {
/* columns rows colors chars-per-pixel */
"32 32 82 1 ",
"  c black",
". c #020202",
"X c gray1",
"o c #040404",
"O c gray2",
"+ c gray4",
"@ c #0C0C0C",
"# c gray5",
"$ c #0E0E0E",
"% c gray6",
"& c #101010",
"* c #111111",
"= c gray7",
"- c #131313",
"; c gray8",
": c #151515",
"> c #191919",
", c #202020",
"< c gray13",
"1 c #222222",
"2 c #232323",
"3 c gray14",
"4 c gray15",
"5 c #272727",
"6 c gray17",
"7 c #353535",
"8 c gray21",
"9 c #373737",
"0 c #3A3A3A",
"q c gray30",
"w c #565656",
"e c gray36",
"r c #5D5D5D",
"t c #5F5F5F",
"y c #646464",
"u c #656565",
"i c #686868",
"p c #6A6A6A",
"a c #6F6F6F",
"s c #797979",
"d c gray48",
"f c #7B7B7B",
"g c #7C7C7C",
"h c #7E7E7E",
"j c #848484",
"k c #898989",
"l c gray54",
"z c gray55",
"x c gray57",
"c c #929292",
"v c #939393",
"b c gray58",
"n c #959595",
"m c gray59",
"M c #B6B6B6",
"N c #BBBBBB",
"B c #BCBCBC",
"V c gray74",
"C c gray",
"Z c gray81",
"A c LightGray",
"S c gray83",
"D c #D5D5D5",
"F c gray84",
"G c #D8D8D8",
"H c gray85",
"J c #DADADA",
"K c gray86",
"L c gainsboro",
"P c #DDDDDD",
"I c gray87",
"U c gray90",
"Y c #E7E7E7",
"T c gray91",
"R c #E9E9E9",
"E c #EAEAEA",
"W c gray92",
"Q c gray93",
"! c #EEEEEE",
"~ c #FEFEFE",
"^ c gray100",
"/ c None",
/* pixels */
"//                            //",
"/                              /",
"                                ",
"                                ",
"                                ",
"                                ",
"                5a%             ",
"               <V^n%            ",
"              <V^^^x+           ",
"             <V^ZhW^x%          ",
"            <N^A9 e!^n+         ",
"           <N^A9   e!^x%        ",
"          <N^A9     e!^ko       ",
"         <N^A9       yIp        ",
"        <N^D9        o5o        ",
"        j^D9                    ",
"        <n0 -dd-9xxxh%          ",
"         o  <YW5e^^^I>          ",
"            <YY>e^^^G>          ",
"            <YY<e^^^I>          ",
"            <YY<5hddp%          ",
"            <YY<o---%           ",
"            <YW<qDDGM:          ",
"            <YY<e^^^G>          ",
"            <YY>e^^^G>          ",
"            <W!<e^^^G>          ",
"            :kz:<yyye+          ",
"                                ",
"                                ",
"                                ",
"/                              /",
"//                            //"
};
